<mxfile host="app.diagrams.net" agent="Mozilla/5.0 (Windows NT 10.0; Win64; x64) AppleWebKit/537.36 (KHTML, like Gecko) Chrome/130.0.0.0 Safari/537.36" version="24.8.4">
  <diagram name="페이지-1" id="vkz0tW7ZZ1ZY1NEcTXeT">
    <mxGraphModel dx="1591" dy="1955" grid="1" gridSize="10" guides="1" tooltips="1" connect="1" arrows="1" fold="1" page="1" pageScale="1" pageWidth="827" pageHeight="1169" math="0" shadow="0">
      <root>
        <mxCell id="0" />
        <mxCell id="1" parent="0" />
        <mxCell id="79ur8oX3ZBc8nO1tJYB_-5" style="edgeStyle=orthogonalEdgeStyle;rounded=0;orthogonalLoop=1;jettySize=auto;html=1;" parent="1" source="79ur8oX3ZBc8nO1tJYB_-1" edge="1">
          <mxGeometry relative="1" as="geometry">
            <mxPoint x="160" y="110" as="targetPoint" />
          </mxGeometry>
        </mxCell>
        <mxCell id="79ur8oX3ZBc8nO1tJYB_-1" value="대학생" style="shape=umlActor;verticalLabelPosition=bottom;verticalAlign=top;html=1;outlineConnect=0;" parent="1" vertex="1">
          <mxGeometry x="70" y="80" width="30" height="60" as="geometry" />
        </mxCell>
        <mxCell id="79ur8oX3ZBc8nO1tJYB_-2" value="학사 정보&lt;div&gt;시스템&lt;/div&gt;&lt;div&gt;과목&amp;nbsp;&lt;/div&gt;" style="shape=umlActor;verticalLabelPosition=bottom;verticalAlign=top;html=1;outlineConnect=0;" parent="1" vertex="1">
          <mxGeometry x="80" y="-370" width="30" height="60" as="geometry" />
        </mxCell>
        <mxCell id="79ur8oX3ZBc8nO1tJYB_-65" style="rounded=0;orthogonalLoop=1;jettySize=auto;html=1;" parent="1" source="79ur8oX3ZBc8nO1tJYB_-3" target="79ur8oX3ZBc8nO1tJYB_-11" edge="1">
          <mxGeometry relative="1" as="geometry" />
        </mxCell>
        <mxCell id="79ur8oX3ZBc8nO1tJYB_-70" style="edgeStyle=orthogonalEdgeStyle;rounded=0;orthogonalLoop=1;jettySize=auto;html=1;entryX=0;entryY=0.5;entryDx=0;entryDy=0;" parent="1" source="79ur8oX3ZBc8nO1tJYB_-3" target="79ur8oX3ZBc8nO1tJYB_-20" edge="1">
          <mxGeometry relative="1" as="geometry" />
        </mxCell>
        <mxCell id="79ur8oX3ZBc8nO1tJYB_-3" value="로그인" style="ellipse;whiteSpace=wrap;html=1;" parent="1" vertex="1">
          <mxGeometry x="160" y="75" width="140" height="70" as="geometry" />
        </mxCell>
        <mxCell id="79ur8oX3ZBc8nO1tJYB_-67" style="edgeStyle=orthogonalEdgeStyle;rounded=0;orthogonalLoop=1;jettySize=auto;html=1;" parent="1" source="79ur8oX3ZBc8nO1tJYB_-11" target="79ur8oX3ZBc8nO1tJYB_-20" edge="1">
          <mxGeometry relative="1" as="geometry" />
        </mxCell>
        <mxCell id="79ur8oX3ZBc8nO1tJYB_-11" value="과목 등록" style="ellipse;whiteSpace=wrap;html=1;" parent="1" vertex="1">
          <mxGeometry x="520" y="-270" width="140" height="70" as="geometry" />
        </mxCell>
        <mxCell id="79ur8oX3ZBc8nO1tJYB_-48" style="edgeStyle=orthogonalEdgeStyle;rounded=0;orthogonalLoop=1;jettySize=auto;html=1;entryX=0;entryY=0.5;entryDx=0;entryDy=0;" parent="1" source="79ur8oX3ZBc8nO1tJYB_-20" target="79ur8oX3ZBc8nO1tJYB_-37" edge="1">
          <mxGeometry relative="1" as="geometry" />
        </mxCell>
        <mxCell id="79ur8oX3ZBc8nO1tJYB_-50" style="edgeStyle=orthogonalEdgeStyle;rounded=0;orthogonalLoop=1;jettySize=auto;html=1;" parent="1" source="79ur8oX3ZBc8nO1tJYB_-20" target="79ur8oX3ZBc8nO1tJYB_-39" edge="1">
          <mxGeometry relative="1" as="geometry">
            <Array as="points">
              <mxPoint x="800" y="110" />
              <mxPoint x="800" y="30" />
            </Array>
          </mxGeometry>
        </mxCell>
        <mxCell id="79ur8oX3ZBc8nO1tJYB_-61" style="edgeStyle=orthogonalEdgeStyle;rounded=0;orthogonalLoop=1;jettySize=auto;html=1;dashed=1;" parent="1" source="79ur8oX3ZBc8nO1tJYB_-20" target="79ur8oX3ZBc8nO1tJYB_-59" edge="1">
          <mxGeometry relative="1" as="geometry" />
        </mxCell>
        <mxCell id="79ur8oX3ZBc8nO1tJYB_-85" style="edgeStyle=orthogonalEdgeStyle;rounded=0;orthogonalLoop=1;jettySize=auto;html=1;entryX=0;entryY=0.5;entryDx=0;entryDy=0;" parent="1" source="79ur8oX3ZBc8nO1tJYB_-20" target="79ur8oX3ZBc8nO1tJYB_-43" edge="1">
          <mxGeometry relative="1" as="geometry">
            <Array as="points">
              <mxPoint x="800" y="110" />
              <mxPoint x="800" y="205" />
            </Array>
          </mxGeometry>
        </mxCell>
        <mxCell id="79ur8oX3ZBc8nO1tJYB_-86" style="edgeStyle=orthogonalEdgeStyle;rounded=0;orthogonalLoop=1;jettySize=auto;html=1;entryX=0;entryY=0.5;entryDx=0;entryDy=0;" parent="1" source="79ur8oX3ZBc8nO1tJYB_-20" target="79ur8oX3ZBc8nO1tJYB_-44" edge="1">
          <mxGeometry relative="1" as="geometry">
            <Array as="points">
              <mxPoint x="800" y="110" />
              <mxPoint x="800" y="295" />
            </Array>
          </mxGeometry>
        </mxCell>
        <mxCell id="79ur8oX3ZBc8nO1tJYB_-20" value="To do list&amp;nbsp;&lt;div&gt;view&lt;/div&gt;" style="ellipse;whiteSpace=wrap;html=1;" parent="1" vertex="1">
          <mxGeometry x="520" y="75" width="140" height="70" as="geometry" />
        </mxCell>
        <mxCell id="79ur8oX3ZBc8nO1tJYB_-33" value="Todo List" style="shape=umlFrame;whiteSpace=wrap;html=1;pointerEvents=0;width=90;height=30;" parent="1" vertex="1">
          <mxGeometry x="150" y="-140" width="1070" height="550" as="geometry" />
        </mxCell>
        <mxCell id="79ur8oX3ZBc8nO1tJYB_-37" value="To do 항목&amp;nbsp;&lt;div&gt;등록&lt;/div&gt;" style="ellipse;whiteSpace=wrap;html=1;" parent="1" vertex="1">
          <mxGeometry x="940" y="-100" width="140" height="70" as="geometry" />
        </mxCell>
        <mxCell id="79ur8oX3ZBc8nO1tJYB_-39" value="To do 항목&amp;nbsp;&lt;div&gt;수정&lt;/div&gt;" style="ellipse;whiteSpace=wrap;html=1;" parent="1" vertex="1">
          <mxGeometry x="950" y="-10" width="140" height="70" as="geometry" />
        </mxCell>
        <mxCell id="79ur8oX3ZBc8nO1tJYB_-40" value="To do 항목&lt;div&gt;삭제&lt;/div&gt;" style="ellipse;whiteSpace=wrap;html=1;" parent="1" vertex="1">
          <mxGeometry x="950" y="80" width="140" height="70" as="geometry" />
        </mxCell>
        <mxCell id="79ur8oX3ZBc8nO1tJYB_-42" style="edgeStyle=orthogonalEdgeStyle;rounded=0;orthogonalLoop=1;jettySize=auto;html=1;exitX=0.5;exitY=1;exitDx=0;exitDy=0;" parent="1" source="79ur8oX3ZBc8nO1tJYB_-39" target="79ur8oX3ZBc8nO1tJYB_-39" edge="1">
          <mxGeometry relative="1" as="geometry" />
        </mxCell>
        <mxCell id="79ur8oX3ZBc8nO1tJYB_-78" style="edgeStyle=orthogonalEdgeStyle;rounded=0;orthogonalLoop=1;jettySize=auto;html=1;strokeColor=none;" parent="1" source="79ur8oX3ZBc8nO1tJYB_-43" edge="1">
          <mxGeometry relative="1" as="geometry">
            <mxPoint x="800" y="180" as="targetPoint" />
          </mxGeometry>
        </mxCell>
        <mxCell id="79ur8oX3ZBc8nO1tJYB_-43" value="To do 항목&lt;div&gt;숨김 기능&lt;/div&gt;" style="ellipse;whiteSpace=wrap;html=1;gradientColor=none;" parent="1" vertex="1">
          <mxGeometry x="950" y="170" width="140" height="70" as="geometry" />
        </mxCell>
        <mxCell id="79ur8oX3ZBc8nO1tJYB_-44" value="To do 항목&lt;div&gt;중요 표시&lt;/div&gt;" style="ellipse;whiteSpace=wrap;html=1;" parent="1" vertex="1">
          <mxGeometry x="950" y="260" width="140" height="70" as="geometry" />
        </mxCell>
        <mxCell id="79ur8oX3ZBc8nO1tJYB_-59" value="list 정렬" style="ellipse;whiteSpace=wrap;html=1;" parent="1" vertex="1">
          <mxGeometry x="520" y="270" width="140" height="70" as="geometry" />
        </mxCell>
        <mxCell id="79ur8oX3ZBc8nO1tJYB_-83" style="edgeStyle=orthogonalEdgeStyle;rounded=0;orthogonalLoop=1;jettySize=auto;html=1;entryX=0.01;entryY=0.378;entryDx=0;entryDy=0;entryPerimeter=0;" parent="1" source="79ur8oX3ZBc8nO1tJYB_-20" target="79ur8oX3ZBc8nO1tJYB_-40" edge="1">
          <mxGeometry relative="1" as="geometry" />
        </mxCell>
        <mxCell id="5cad7FSVzkf-gsUCOn9q-3" style="edgeStyle=orthogonalEdgeStyle;rounded=0;orthogonalLoop=1;jettySize=auto;html=1;entryX=0.437;entryY=0.124;entryDx=0;entryDy=0;entryPerimeter=0;" edge="1" parent="1" source="79ur8oX3ZBc8nO1tJYB_-2" target="79ur8oX3ZBc8nO1tJYB_-11">
          <mxGeometry relative="1" as="geometry" />
        </mxCell>
      </root>
    </mxGraphModel>
  </diagram>
</mxfile>
